HIERARCHY
ROOT pelvis
{
  OFFSET 0 100 0
  CHANNELS 6 Xposition Yposition Zposition Zrotation Xrotation Yrotation
  JOINT pelvis_right_femur
  {
    OFFSET -10.78128 -3.44521 -0.5502486
    CHANNELS 3 Zrotation Xrotation Yrotation
    JOINT right_femur_tibia
    {
      OFFSET -0.8047443 -44.0398 -0.1307829
      CHANNELS 3 Zrotation Xrotation Yrotation
      JOINT right_tibia_foot
      {
        OFFSET 3.006224 -47.83518 -5
        CHANNELS 3 Zrotation Xrotation Yrotation
        End Site
        {
          OFFSET 0 -5 15
        }
      }
    }
  }
  JOINT pelvis_left_femur
  {
    OFFSET 10.78128 -3.44521 -0.5502486
    CHANNELS 3 Zrotation Xrotation Yrotation
    JOINT left_femur_tibia
    {
      OFFSET 0.8047443 -44.0398 -0.1307829
      CHANNELS 3 Zrotation Xrotation Yrotation
      JOINT left_tibia_foot
      {
        OFFSET -4.370144 -48.10324 -4.275266
        CHANNELS 3 Zrotation Xrotation Yrotation
        End Site
        {
          OFFSET 0 -5 15
        }
      }
    }
  }
  JOINT pelvis_spine1
  {
    OFFSET 0 6.468898 -3.129235
    CHANNELS 3 Zrotation Xrotation Yrotation
    JOINT spine1
    {
      OFFSET 0 23.15396 4.99043
      CHANNELS 3 Zrotation Xrotation Yrotation
      JOINT spine2
      {
        OFFSET 0 20.79997 -5.064912
        CHANNELS 3 Zrotation Xrotation Yrotation
        JOINT neck
        {
          OFFSET 0 14.38658 9.616178
          CHANNELS 3 Zrotation Xrotation Yrotation
          End Site
          {
            OFFSET 0 20 0
          }
        }
      }
      JOINT right_manubrium
      {
        OFFSET -5.722621 16.35077 3.967754
        CHANNELS 3 Zrotation Xrotation Yrotation
        JOINT right_clavicle
        {
          OFFSET -13.16364 1.694482 -4.693211
          CHANNELS 3 Zrotation Xrotation Yrotation
          JOINT right_humerus
          {
            OFFSET -28.5034 -0.3100689 -2.792744
            CHANNELS 3 Zrotation Xrotation Yrotation
            JOINT right_radius
            {
              OFFSET -25.15693 0.02248979 -1.271978
              CHANNELS 3 Zrotation Xrotation Yrotation
              End Site
              {
                OFFSET -15 0 0
              }
            }
          }
        }
      }
      JOINT left_manubrium
      {
        OFFSET 5.722621 16.35077 3.967754
        CHANNELS 3 Zrotation Xrotation Yrotation
        JOINT left_clavicle
        {
          OFFSET 13.16364 1.694482 -4.693211
          CHANNELS 3 Zrotation Xrotation Yrotation
          JOINT left_humerus
          {
            OFFSET 29.39168 -1.063119 -2.237045
            CHANNELS 3 Zrotation Xrotation Yrotation
            JOINT left_radius
            {
              OFFSET 24.59957 -0.9528479 0.9047498
              CHANNELS 3 Zrotation Xrotation Yrotation
              End Site
              {
                OFFSET 15 -0 -0
              }
            }
          }
        }
      }
    }
  }
}
MOTION
Frames: 17
Frame Time: 0.0416666666667
0 103.5113 0 1.622414 -3.249429 0.1264957 1.150638 -10.30962 6.756069 -0 39.73627 -0 -6.31877 -17.33461 -4.071939 -6.80829 12.35136 -23.96478 -0 5.769567 -0 0.152358 -18.81695 22.99878 -1.119016 -2.928497 4.755262 -0.3198352 7.506361 -6.943567 1.281657 22.28975 9.265779 6.224397 -22.11744 9.428478 6.172009 -18.8204 10.22331 88.44171 35.73528 -24.2891 -0 0 17.68841 -6.832619 7.960878 2.01318 7.970196 -21.38722 -2.727072 -101.9 42.82228 28.50765 0 0 -25.46403 -9.07978 17.27964 25.96743
0.1558967 103.8109 1.163926 0.8827009 -2.467172 0.01707654 2.230819 -13.04618 8.193308 -0 41.03452 -0 -5.7534 -16.91092 -4.987524 -6.218049 12.20575 -24.01249 -0 6.189317 -0 -1.501309 -19.87746 22.82404 -1.003641 -2.922451 4.995741 -0.5491085 7.564941 -6.828303 1.33143 22.19614 9.286959 6.331038 -21.98999 9.402887 6.117187 -18.89118 10.13492 88.35315 36.14309 -24.04885 -0 0 17.81157 -7.162566 8.168858 2.096971 8.234343 -21.6236 -2.484662 -101.7487 42.68656 28.42445 0 0 -25.80164 -8.519471 17.31928 25.63909
0.3038603 103.8862 2.629261 0.1308208 -1.515287 -0.09063528 3.586901 -18.45778 7.744538 -0 38.2643 -0 -6.033567 -14.45603 -4.620684 -5.694767 12.31393 -23.06279 -0 6.178131 -0 -1.257826 -21.29833 22.1939 -1.228923 -2.285885 4.348951 0.286256 7.331452 -7.139606 1.216712 22.34336 8.76218 5.665273 -22.56036 9.011887 5.957774 -18.42081 10.3951 88.13479 36.08583 -23.37413 -0 0 16.49535 -7.826419 8.426276 3.183523 7.113022 -20.94469 -2.697599 -99.89267 41.40702 27.09205 0 0 -24.82887 -8.515075 17.00994 25.60618
0.4443445 103.7804 4.343456 -0.4428575 -0.6145827 -0.1746965 4.708759 -22.68433 7.825586 -0 35.89618 -0 -6.040926 -12.55069 -4.537197 -5.307631 12.39464 -22.39302 -0 6.231677 -0 -1.305646 -22.52301 21.66974 -1.282728 -2.03148 4.068387 0.6210142 7.264669 -7.294522 1.178608 22.36058 8.563 5.418432 -22.7604 8.853065 5.917431 -18.20557 10.50252 88.14392 36.03099 -23.25938 -0 0 15.94254 -8.0278 8.560012 3.560989 6.698315 -20.72686 -2.803205 -99.11716 40.86988 26.49843 0 0 -24.55661 -8.537598 16.87204 25.62727
0.5803693 103.4366 6.414975 -0.8617341 0.3523971 -0.1941341 5.636732 -26.92466 7.447953 -0 32.17204 -0 -6.189615 -10.32694 -4.14453 -5.072108 12.65705 -21.53687 -0 6.251933 -0 -0.9381492 -23.70052 20.96829 -1.316813 -1.710842 3.682329 1.05143 7.200176 -7.525856 1.137047 22.34434 8.32081 5.122543 -22.99205 8.652917 5.888523 -17.90489 10.64072 88.26152 35.92306 -23.28307 -0 0 15.21257 -8.197679 8.750066 3.971867 6.201465 -20.49983 -2.963541 -98.11175 40.18177 25.69314 0 0 -24.33106 -8.611239 16.69014 25.70855
0.7099273 102.8821 8.882062 -1.161476 1.329058 -0.1252666 6.371358 -30.53508 7.059079 -0 28.19728 -0 -6.304986 -8.282726 -3.765934 -4.938143 13.05571 -20.74504 -0 6.443505 -0 -0.6624948 -24.69758 20.17047 -1.343805 -1.444443 3.348616 1.419109 7.15275 -7.729403 1.100721 22.32438 8.120419 4.874426 -23.17877 8.483159 5.870658 -17.64115 10.76058 88.37594 35.81271 -23.33456 -0 0 14.58381 -8.342027 8.92171 4.315693 5.788873 -20.31729 -3.107716 -97.2561 39.57591 24.9898 0 0 -24.15362 -8.671887 16.52749 25.76067
0.8294578 102.1649 11.81953 -1.368649 2.300724 0.05905401 6.887108 -33.47792 6.494627 -0 23.93294 -0 -6.458226 -6.392736 -3.35664 -4.881414 13.65393 -19.9321 -0 7.003331 -0 -0.565123 -25.4115 19.13328 -1.35965 -1.16397 3.016084 1.788079 7.119173 -7.939673 1.066391 22.28966 7.910506 4.620311 -23.35075 8.297755 5.849522 -17.3606 10.88213 88.50043 35.72729 -23.38489 -0 0 13.91369 -8.552908 9.148649 4.695933 5.380835 -20.15791 -3.244809 -96.32027 38.87929 24.21163 0 0 -24.00803 -8.666796 16.35058 25.75889
0.9344597 101.3795 15.29602 -1.541478 3.212589 0.3753799 7.2241 -35.47197 5.864222 -0 19.90889 -0 -6.627455 -4.845702 -3.020903 -4.838016 14.42371 -19.12571 -0 8.202571 -0 -0.9409146 -25.66085 17.76925 -1.372794 -0.8901569 2.722884 2.126626 7.104448 -8.130373 1.034755 22.25205 7.703131 4.373517 -23.49223 8.107458 5.820687 -17.08989 10.99727 88.59452 35.68736 -23.37897 -0 0 13.25378 -8.868046 9.425747 5.115819 5.001822 -20.02598 -3.357606 -95.36865 38.1172 23.41767 0 0 -23.87107 -8.563145 16.16822 25.66393
1.019537 100.6593 19.38446 -1.741878 3.998412 0.8271984 7.444598 -36.27207 5.228766 -0 16.57791 -0 -6.813129 -3.764984 -2.803993 -4.736493 15.28884 -18.28027 -0 10.40473 -0 -2.014839 -25.16112 15.96861 -1.374688 -0.62293 2.487253 2.418106 7.12083 -8.294832 1.010089 22.20627 7.497391 4.138404 -23.58632 7.910706 5.780064 -16.83483 11.10165 88.66218 35.72123 -23.30974 -0 0 12.60868 -9.326194 9.782696 5.582602 4.664721 -19.94081 -3.437242 -94.39047 37.26779 22.60461 0 0 -23.76551 -8.325318 15.98236 25.45796
1.080983 100.1649 24.13285 -2.044708 4.566038 1.391275 7.677145 -35.65887 4.747226 -0 14.53871 -0 -6.998711 -3.267521 -2.74435 -4.48384 16.02255 -17.35484 -0 14.02646 -0 -3.924452 -23.54374 13.73561 -1.36356 -0.3801237 2.346604 2.627696 7.178942 -8.410514 0.9966461 22.15688 7.305193 3.930825 -23.61169 7.7198 5.724139 -16.62221 11.18609 88.68573 35.85298 -23.14978 -0 0 12.03013 -9.955553 10.22758 6.085507 4.396798 -19.91678 -3.469671 -93.44547 36.36082 21.83275 0 0 -23.69328 -7.931936 15.80417 25.12852
1.12156 100.046 29.52468 -2.502213 4.796914 1.997905 8.053641 -33.56275 4.561487 -0 14.25466 -0 -7.190139 -3.372933 -2.806022 -4.002338 16.19375 -16.28284 -0 19.47879 -0 -6.503663 -20.45752 11.29438 -1.336521 -0.1774281 2.339888 2.719991 7.28795 -8.45237 0.9992115 22.10865 7.139142 3.766292 -23.54948 7.549084 5.648289 -16.48221 11.24145 88.64259 36.10747 -22.86385 -0 0 11.57641 -10.78599 10.77208 6.613853 4.222771 -19.96419 -3.439121 -92.59772 35.43193 21.17328 0 0 -23.64988 -7.368051 15.64524 24.67368
1.15642 100.3801 35.42103 -3.071975 4.553741 2.510443 8.587436 -30.13868 4.668209 -0 15.66328 -0 -7.451369 -4.004718 -2.871442 -3.308441 15.17683 -15.00913 -0 26.96379 -0 -9.153722 -15.91152 9.14592 -1.297146 -0.02814917 2.505105 2.66485 7.449071 -8.390053 1.020104 22.07103 7.013987 3.657746 -23.39188 7.415401 5.547544 -16.44914 11.26176 88.48255 36.49829 -22.3843 -0 0 11.31721 -11.85046 11.41919 7.167333 4.15797 -20.07471 -3.327449 -91.92387 34.52425 20.71565 0 0 -23.59597 -6.63138 15.51208 24.09508
1.211825 101.1253 41.53669 -3.518428 3.715019 2.736865 9.024778 -25.6803 4.776744 -0 17.72662 -0 -7.90922 -5.091647 -2.813472 -2.621609 12.39299 -13.5487 -0 36.20927 -0 -10.97645 -10.71215 7.874353 -1.254453 0.06596627 2.863995 2.452217 7.654493 -8.198508 1.05759 22.05215 6.941055 3.608735 -23.14635 7.330553 5.418906 -16.54802 11.24961 88.13247 37.01415 -21.6197 -0 0 11.3096 -13.18726 12.1686 7.768987 4.197623 -20.21812 -3.121072 -91.47845 33.65609 20.53264 0 0 -23.45971 -5.734976 15.39512 23.3949
1.311602 102.1538 47.53047 -3.437506 2.263069 2.530995 8.876397 -20.3999 4.431026 -0 18.69294 -0 -8.603521 -6.682358 -2.647644 -2.33999 7.756306 -12.06564 -0 46.24362 -0 -11.28507 -6.425816 7.796307 -1.222287 0.1170375 3.407147 2.10325 7.888868 -7.870189 1.105002 22.05447 6.923567 3.609234 -22.83402 7.295868 5.265227 -16.78344 11.21994 87.5148 37.59963 -20.48347 -0 0 11.57967 -14.82605 13.01153 8.464171 4.310522 -20.34341 -2.823369 -91.27233 32.80435 20.65218 0 0 -23.14876 -4.720473 15.26258 22.58174
1.462311 103.3545 53.20439 -2.567222 0.4032923 1.953537 7.819801 -14.45905 3.495113 -0 17.4724 -0 -9.211131 -8.687931 -2.50711 -2.697509 1.873836 -10.78346 -0 55.38691 -0 -10.17008 -4.31078 8.790599 -1.212399 0.1459733 4.088806 1.667163 8.135962 -7.424376 1.153741 22.07138 6.95424 3.638137 -22.47937 7.302165 5.097424 -17.13544 11.19628 86.59372 38.15527 -18.95199 -0 0 12.11345 -16.75612 13.92569 9.293241 4.446264 -20.39548 -2.464627 -91.26882 31.91898 21.04506 0 0 -22.59132 -3.668541 15.07095 21.68998
1.644961 104.6471 58.60327 -1.147582 -1.447733 1.266236 6.16396 -8.341164 2.462227 -0 14.70424 -0 -9.10164 -10.48357 -2.366228 -3.33118 -4.402561 -9.682707 -0 61.49743 -0 -8.509364 -4.171094 10.42338 -1.22562 0.1702084 4.84607 1.196367 8.383617 -6.898833 1.198846 22.08955 7.021264 3.676075 -22.10028 7.339082 4.931105 -17.57207 11.19753 85.4081 38.57614 -17.09847 -0 0 12.87383 -18.9002 14.87273 10.25235 4.561418 -20.3401 -2.091126 -91.41692 30.97447 21.65401 0 0 -21.7803 -2.682369 14.79243 20.78897
1.82179 105.8496 63.87311 0.2003227 -2.94405 0.6880352 4.684998 -2.746303 1.948887 -0 11.83499 -0 -7.992916 -11.41272 -2.07477 -3.434898 -10.49753 -8.45107 -0 62.59232 -0 -7.217435 -4.828816 12.26214 -1.250311 0.196394 5.632795 0.7186578 8.621491 -6.32552 1.241875 22.09595 7.118013 3.717419 -21.70745 7.404826 4.778042 -18.07047 11.22641 84.04161 38.80573 -15.04325 -0 0 13.83186 -21.14013 15.8095 11.29008 4.6434 -20.17427 -1.734968 -91.69308 30.00086 22.44254 0 0 -20.77286 -1.841057 14.43388 19.95715
